<svg width="280" height="272" viewBox="0 0 280 272" fill="none" xmlns="http://www.w3.org/2000/svg">
<path d="M52.9095 125.267V126.799C52.9105 127.085 52.8211 127.364 52.6539 127.596C52.4867 127.828 52.2504 128.001 51.979 128.09V128.652C51.979 128.829 51.9441 129.005 51.8764 129.169C51.8087 129.332 51.7094 129.481 51.5842 129.606C51.459 129.732 51.3104 129.831 51.1469 129.899C50.9833 129.967 50.808 130.002 50.631 130.002H38.9861C38.8091 130.002 38.6338 129.967 38.4703 129.899C38.3067 129.831 38.1581 129.732 38.033 129.606C37.9078 129.481 37.8085 129.332 37.7407 129.169C37.673 129.005 37.6381 128.829 37.6381 128.652V128.09C37.3658 128.002 37.1285 127.829 36.9607 127.597C36.7929 127.365 36.7034 127.086 36.7051 126.799V125.267C36.7051 125.09 36.74 124.914 36.8077 124.75C36.8755 124.587 36.9747 124.438 37.0999 124.313C37.2251 124.187 37.3737 124.088 37.5372 124.02C37.7008 123.952 37.8761 123.917 38.0531 123.917H51.5615C51.7386 123.917 51.914 123.952 52.0777 124.019C52.2414 124.087 52.3902 124.186 52.5154 124.312C52.6406 124.437 52.7399 124.586 52.8075 124.75C52.8752 124.914 52.9098 125.089 52.9095 125.267Z" fill="#F7F3EF" stroke="#070707" stroke-opacity="0.63" stroke-width="1.5" stroke-linecap="round" stroke-linejoin="round"/>
<path d="M37.579 127.742H52.0385C54.2526 127.742 56.376 128.622 57.9416 130.189C59.5072 131.757 60.3868 133.883 60.3868 136.099V166.805C60.3834 167.862 59.9615 168.875 59.2136 169.621C58.4658 170.367 57.4529 170.787 56.3969 170.787H33.2206C32.1624 170.787 31.1476 170.366 30.3993 169.617C29.6511 168.868 29.2307 167.852 29.2307 166.792V136.086C29.2341 133.872 30.1152 131.749 31.6804 130.185C33.2457 128.62 35.3672 127.742 37.579 127.742Z" fill="#F7F3EF" stroke="#070707" stroke-opacity="0.63" stroke-width="1.5" stroke-linecap="round" stroke-linejoin="round"/>
<path d="M58.129 152.747V164.67C58.129 165.702 57.7195 166.692 56.9906 167.422C56.2617 168.152 55.273 168.562 54.2422 168.562H35.3676C34.337 168.561 33.3488 168.151 32.62 167.421C31.8912 166.692 31.4815 165.702 31.4808 164.67V152.747C31.4808 151.568 37.4476 149.392 44.8088 149.392C52.1699 149.392 58.129 151.568 58.129 152.747Z" fill="#EFAF00" stroke="black" stroke-width="1.5" stroke-linecap="round" stroke-linejoin="round"/>
<path d="M91.5661 125.267V126.799C91.5674 127.086 91.4777 127.365 91.31 127.597C91.1422 127.829 90.9052 128.001 90.633 128.09V128.652C90.633 128.829 90.5982 129.005 90.5304 129.169C90.4627 129.332 90.3634 129.481 90.2382 129.606C90.113 129.732 89.9644 129.831 89.8009 129.899C89.6374 129.967 89.4621 130.002 89.285 130.002H77.6427C77.4656 130.002 77.2902 129.967 77.1265 129.9C76.9628 129.832 76.8141 129.733 76.6888 129.607C76.5636 129.482 76.4643 129.333 76.3967 129.169C76.329 129.005 76.2944 128.829 76.2948 128.652V128.09C76.0221 128.002 75.7845 127.83 75.6163 127.598C75.4481 127.366 75.358 127.086 75.3591 126.799V125.267C75.3591 125.09 75.394 124.914 75.4617 124.75C75.5295 124.587 75.6288 124.438 75.754 124.313C75.8791 124.187 76.0277 124.088 76.1913 124.02C76.3548 123.952 76.5301 123.917 76.7071 123.917H90.2181C90.3951 123.917 90.5704 123.952 90.7339 124.02C90.8975 124.088 91.0461 124.187 91.1713 124.313C91.2964 124.438 91.3957 124.587 91.4635 124.75C91.5312 124.914 91.5661 125.09 91.5661 125.267Z" fill="#F7F3EF" stroke="#070707" stroke-opacity="0.63" stroke-width="1.5" stroke-linecap="round" stroke-linejoin="round"/>
<path d="M76.2328 127.742H90.6923C92.9064 127.742 95.0298 128.622 96.5954 130.189C98.1611 131.757 99.0406 133.883 99.0406 136.099V166.805C99.0372 167.862 98.6153 168.875 97.8675 169.621C97.1196 170.367 96.1067 170.787 95.0507 170.787H71.8744C70.8162 170.787 69.8014 170.366 69.0531 169.617C68.3049 168.868 67.8845 167.852 67.8845 166.792V136.086C67.8879 133.872 68.769 131.749 70.3342 130.185C71.8995 128.62 74.021 127.742 76.2328 127.742Z" fill="#F7F3EF" stroke="#070707" stroke-opacity="0.63" stroke-width="1.5" stroke-linecap="round" stroke-linejoin="round"/>
<path d="M96.7905 151.343V163.329C96.7905 166.216 95.0482 168.562 92.9037 168.562H74.024C71.877 168.562 70.1372 166.216 70.1372 163.329V149.318C70.1372 146.384 75.7586 142.147 86.1354 144.598C94.9012 146.67 96.7905 151.343 96.7905 151.343Z" fill="#E57B07" stroke="#070707" stroke-opacity="0.63" stroke-width="1.5" stroke-linecap="round" stroke-linejoin="round"/>
<path d="M117.954 153.131H122.178C122.866 153.131 123.547 153.266 124.183 153.53C124.818 153.793 125.395 154.18 125.882 154.666C126.368 155.153 126.754 155.731 127.017 156.367C127.28 157.004 127.416 157.685 127.416 158.374V165.857C127.416 166.952 126.981 168.002 126.208 168.776C125.434 169.55 124.386 169.985 123.292 169.985H116.835C115.742 169.985 114.693 169.55 113.919 168.776C113.146 168.002 112.711 166.952 112.711 165.857V158.374C112.711 157.685 112.847 157.003 113.111 156.366C113.374 155.73 113.76 155.152 114.247 154.665C114.734 154.178 115.312 153.792 115.948 153.528C116.584 153.265 117.266 153.13 117.954 153.131Z" fill="#F7F3EF" stroke="#070707" stroke-opacity="0.63" stroke-width="1.5" stroke-linecap="round" stroke-linejoin="round"/>
<path d="M118.183 153.131H122.738C124.083 153.131 125.373 153.666 126.324 154.618C127.276 155.57 127.81 156.862 127.81 158.209V165.725C127.81 166.283 127.7 166.835 127.487 167.351C127.274 167.866 126.961 168.334 126.567 168.729C126.173 169.123 125.706 169.436 125.191 169.649C124.676 169.863 124.125 169.973 123.567 169.973H117.356C116.799 169.973 116.247 169.863 115.732 169.649C115.218 169.436 114.75 169.123 114.356 168.729C113.962 168.334 113.65 167.866 113.436 167.351C113.223 166.835 113.113 166.283 113.113 165.725V158.209C113.113 156.862 113.647 155.571 114.598 154.619C115.549 153.667 116.838 153.131 118.183 153.131Z" fill="#1C0E0C"/>
<path d="M113.732 153.131H118.286C119.632 153.131 120.922 153.666 121.873 154.618C122.824 155.57 123.359 156.862 123.359 158.209V165.725C123.359 166.283 123.249 166.835 123.036 167.351C122.823 167.866 122.51 168.334 122.116 168.729C121.722 169.123 121.255 169.436 120.74 169.649C120.225 169.863 119.673 169.973 119.116 169.973H112.902C112.345 169.973 111.793 169.863 111.279 169.649C110.764 169.436 110.296 169.123 109.902 168.729C109.508 168.334 109.196 167.866 108.983 167.351C108.769 166.835 108.66 166.283 108.66 165.725V158.209C108.66 156.862 109.194 155.57 110.145 154.618C111.097 153.666 112.387 153.131 113.732 153.131Z" fill="#F7F3EF" stroke="#070707" stroke-opacity="0.63" stroke-width="1.5" stroke-linecap="round" stroke-linejoin="round"/>
<path d="M120.64 158.501H111.219V164.389H120.64V158.501Z" fill="#F7F3EF" stroke="#070707" stroke-opacity="0.63" stroke-width="1.5" stroke-linecap="round" stroke-linejoin="round"/>
<path d="M120.877 146.461H118.23C116.191 146.461 114.794 148.68 115.541 150.726L116.418 153.118H122.689L123.565 150.726C124.312 148.68 122.915 146.461 120.877 146.461Z" fill="#1C0E0C"/>
<path d="M118.011 146.461H115.361C113.322 146.461 111.925 148.68 112.675 150.726L113.549 153.118H119.82L120.696 150.726C121.446 148.68 120.047 146.461 118.011 146.461Z" fill="#F7F3EF" stroke="#070707" stroke-opacity="0.63" stroke-width="1.5" stroke-linecap="round" stroke-linejoin="round"/>
<path d="M142.468 153.131H146.69C148.079 153.131 149.411 153.683 150.393 154.666C151.375 155.65 151.927 156.983 151.927 158.374V165.857C151.927 166.952 151.493 168.002 150.719 168.776C149.946 169.55 148.897 169.985 147.803 169.985H141.347C140.253 169.985 139.204 169.55 138.431 168.776C137.657 168.002 137.223 166.952 137.223 165.857V158.374C137.223 156.983 137.775 155.65 138.757 154.666C139.739 153.683 141.071 153.131 142.46 153.131H142.468Z" fill="#F7F3EF" stroke="#070707" stroke-opacity="0.63" stroke-width="1.5" stroke-linecap="round" stroke-linejoin="round"/>
<path d="M142.697 153.131H147.252C148.597 153.131 149.887 153.666 150.838 154.618C151.79 155.57 152.324 156.862 152.324 158.209V165.725C152.323 166.851 151.876 167.931 151.081 168.727C150.285 169.523 149.206 169.97 148.082 169.97H141.867C140.742 169.97 139.663 169.522 138.867 168.726C138.072 167.929 137.625 166.849 137.625 165.723V158.209C137.625 156.862 138.159 155.57 139.111 154.618C140.062 153.666 141.352 153.131 142.697 153.131Z" fill="#1C0E0C"/>
<path d="M138.246 153.131H142.8C144.146 153.131 145.436 153.666 146.387 154.618C147.338 155.57 147.873 156.862 147.873 158.209V165.725C147.873 166.283 147.763 166.835 147.55 167.351C147.337 167.866 147.024 168.334 146.63 168.729C146.236 169.123 145.769 169.436 145.254 169.649C144.739 169.863 144.187 169.973 143.63 169.973H137.416C136.859 169.973 136.307 169.863 135.793 169.649C135.278 169.436 134.81 169.123 134.416 168.729C134.022 168.334 133.71 167.866 133.497 167.351C133.283 166.835 133.174 166.283 133.174 165.725V158.209C133.174 156.862 133.708 155.57 134.659 154.618C135.611 153.666 136.901 153.131 138.246 153.131Z" fill="#F7F3EF" stroke="#070707" stroke-opacity="0.63" stroke-width="1.5" stroke-linecap="round" stroke-linejoin="round"/>
<path d="M145.151 158.501H135.73V164.389H145.151V158.501Z" fill="#F7F3EF" stroke="#070707" stroke-opacity="0.63" stroke-width="1.5" stroke-linecap="round" stroke-linejoin="round"/>
<path d="M145.594 146.461H143.151C141.112 146.461 139.715 148.68 140.465 150.726L141.339 153.118H147.406L148.283 150.726C149.03 148.68 147.633 146.461 145.594 146.461Z" fill="#1C0E0C"/>
<path d="M142.318 146.461H139.875C137.836 146.461 136.439 148.68 137.187 150.726L138.063 153.118H144.13L145.004 150.726C145.762 148.68 144.357 146.461 142.318 146.461Z" fill="#F7F3EF" stroke="#070707" stroke-opacity="0.63" stroke-width="1.5" stroke-linecap="round" stroke-linejoin="round"/>
<path d="M166.982 153.131H171.204C172.592 153.133 173.922 153.686 174.902 154.669C175.883 155.652 176.433 156.985 176.433 158.374V165.857C176.433 166.952 175.999 168.002 175.226 168.776C174.452 169.55 173.403 169.985 172.31 169.985H165.866C164.772 169.985 163.723 169.55 162.95 168.776C162.177 168.002 161.742 166.952 161.742 165.857V158.374C161.742 157.685 161.878 157.004 162.141 156.367C162.404 155.731 162.79 155.153 163.276 154.666C163.762 154.18 164.34 153.793 164.975 153.53C165.611 153.266 166.292 153.131 166.979 153.131H166.982Z" fill="#F7F3EF" stroke="#070707" stroke-opacity="0.63" stroke-width="1.5" stroke-linecap="round" stroke-linejoin="round"/>
<path d="M167.211 153.131H171.766C173.111 153.131 174.401 153.666 175.352 154.618C176.304 155.57 176.838 156.862 176.838 158.209V165.725C176.838 166.283 176.728 166.835 176.515 167.351C176.302 167.866 175.989 168.334 175.595 168.729C175.202 169.123 174.734 169.436 174.219 169.649C173.704 169.863 173.153 169.973 172.596 169.973H166.381C165.824 169.973 165.273 169.863 164.758 169.649C164.243 169.436 163.775 169.123 163.382 168.729C162.988 168.334 162.675 167.866 162.462 167.351C162.249 166.835 162.139 166.283 162.139 165.725V158.209C162.139 156.862 162.673 155.57 163.625 154.618C164.576 153.666 165.866 153.131 167.211 153.131Z" fill="#1C0E0C"/>
<path d="M162.76 153.131H167.314C168.66 153.131 169.95 153.666 170.901 154.618C171.852 155.57 172.387 156.862 172.387 158.209V165.725C172.387 166.283 172.277 166.835 172.064 167.351C171.851 167.866 171.538 168.334 171.144 168.729C170.75 169.123 170.283 169.436 169.768 169.649C169.253 169.863 168.701 169.973 168.144 169.973H161.928C161.37 169.973 160.819 169.863 160.304 169.649C159.789 169.436 159.322 169.123 158.928 168.729C158.534 168.334 158.221 167.866 158.008 167.351C157.795 166.835 157.685 166.283 157.685 165.725V158.209C157.685 157.542 157.816 156.881 158.071 156.265C158.326 155.649 158.7 155.089 159.172 154.617C159.643 154.146 160.202 153.772 160.818 153.517C161.434 153.261 162.094 153.13 162.76 153.131Z" fill="#F7F3EF" stroke="#070707" stroke-opacity="0.63" stroke-width="1.5" stroke-linecap="round" stroke-linejoin="round"/>
<path d="M169.665 158.501H160.245V164.389H169.665V158.501Z" fill="#F7F3EF" stroke="#070707" stroke-opacity="0.63" stroke-width="1.5" stroke-linecap="round" stroke-linejoin="round"/>
<path d="M169.905 146.461H166.845C164.807 146.461 163.41 148.68 164.16 150.726L165.033 153.118H171.714L172.591 150.726C173.341 148.68 171.944 146.461 169.905 146.461Z" fill="#1C0E0C"/>
<path d="M166.639 146.461H164.399C162.361 146.461 160.964 148.68 161.714 150.726L162.587 153.118H168.443L169.317 150.726C170.062 148.68 168.665 146.461 166.639 146.461Z" fill="#F7F3EF" stroke="#070707" stroke-opacity="0.63" stroke-width="1.5" stroke-linecap="round" stroke-linejoin="round"/>
<path d="M219.912 127.63H218.928C219.01 127.797 219.054 127.98 219.054 128.167V129.067C219.054 129.284 218.968 129.492 218.815 129.646C218.661 129.799 218.454 129.885 218.237 129.885H213.262C213.155 129.885 213.048 129.865 212.949 129.824C212.85 129.783 212.759 129.722 212.683 129.646C212.607 129.571 212.546 129.48 212.505 129.381C212.464 129.281 212.443 129.175 212.443 129.067V128.167C212.443 127.98 212.486 127.797 212.569 127.63H211.538V125.909C211.538 125.75 211.569 125.593 211.63 125.446C211.691 125.299 211.78 125.166 211.892 125.054C212.005 124.942 212.138 124.853 212.284 124.792C212.431 124.732 212.588 124.701 212.747 124.701H218.703C218.862 124.701 219.019 124.732 219.165 124.793C219.312 124.853 219.445 124.942 219.557 125.054C219.669 125.166 219.758 125.3 219.818 125.446C219.879 125.593 219.91 125.75 219.91 125.909L219.912 127.63Z" fill="#F7F3EF" stroke="#070707" stroke-opacity="0.63" stroke-width="1.5" stroke-linecap="round" stroke-linejoin="round"/>
<path d="M223.838 150.814L222.807 165.974C222.772 166.61 222.497 167.21 222.038 167.652C221.579 168.093 220.969 168.344 220.332 168.353H211.121C210.484 168.345 209.874 168.094 209.414 167.653C208.955 167.211 208.68 166.611 208.646 165.974L207.615 150.814H223.838Z" fill="#F7F3EF" stroke="#070707" stroke-opacity="0.63" stroke-width="1.5" stroke-linecap="round" stroke-linejoin="round"/>
<path d="M225.711 146.464L224.247 167.396C224.195 168.149 223.86 168.854 223.31 169.369C222.76 169.885 222.035 170.173 221.281 170.175H210.198C209.442 170.175 208.715 169.889 208.162 169.373C207.609 168.857 207.273 168.15 207.221 167.396L205.757 146.464C205.695 145.632 205.848 144.797 206.201 144.041C206.554 143.285 207.095 142.632 207.772 142.145C208.513 141.63 209.118 140.944 209.537 140.145C209.955 139.345 210.175 138.457 210.177 137.554L210.113 129.687C210.101 129.421 210.143 129.154 210.237 128.905C210.33 128.655 210.473 128.427 210.657 128.234C210.841 128.041 211.062 127.888 211.307 127.783C211.552 127.678 211.816 127.623 212.082 127.623H219.371C219.637 127.623 219.901 127.677 220.146 127.782C220.392 127.887 220.613 128.04 220.797 128.233C220.981 128.426 221.125 128.654 221.218 128.904C221.312 129.154 221.354 129.42 221.343 129.687L221.281 137.56C221.283 138.461 221.502 139.348 221.92 140.146C222.338 140.944 222.941 141.63 223.68 142.145C224.361 142.63 224.905 143.282 225.26 144.038C225.616 144.795 225.771 145.63 225.711 146.464Z" fill="#F7F3EF" stroke="#070707" stroke-opacity="0.63" stroke-width="1.5" stroke-linecap="round" stroke-linejoin="round"/>
<path d="M220.848 159.175C220.69 160.047 218.451 161.144 215.711 161.144C212.971 161.144 210.731 160.047 210.574 159.175L210.595 148.154C210.876 147.321 213.059 146.268 215.711 146.268C218.363 146.268 220.546 147.321 220.827 148.154L220.848 159.175Z" fill="#F7F3EF" stroke="#070707" stroke-opacity="0.63" stroke-width="1.5" stroke-linecap="round" stroke-linejoin="round"/>
<path d="M247.728 130.296V130.835C247.728 131.132 247.61 131.417 247.4 131.627C247.19 131.837 246.906 131.955 246.609 131.955V133.658C246.61 133.811 246.58 133.962 246.522 134.104C246.463 134.245 246.378 134.374 246.27 134.482C246.162 134.591 246.033 134.677 245.892 134.735C245.751 134.794 245.6 134.824 245.447 134.824H243.207C243.054 134.824 242.903 134.794 242.762 134.735C242.62 134.677 242.492 134.591 242.384 134.482C242.276 134.374 242.191 134.245 242.132 134.104C242.074 133.962 242.044 133.811 242.045 133.658V131.955C241.748 131.955 241.463 131.837 241.254 131.627C241.044 131.417 240.926 131.132 240.926 130.835V130.296C240.926 130.148 240.954 130.002 241.01 129.866C241.067 129.73 241.149 129.606 241.253 129.502C241.357 129.398 241.48 129.315 241.616 129.259C241.752 129.202 241.898 129.173 242.045 129.173H246.609C246.756 129.173 246.902 129.202 247.038 129.259C247.174 129.315 247.297 129.398 247.401 129.502C247.505 129.606 247.587 129.73 247.643 129.866C247.7 130.002 247.728 130.148 247.728 130.296Z" fill="#F7F3EF" stroke="#070707" stroke-opacity="0.63" stroke-width="1.5" stroke-linecap="round" stroke-linejoin="round"/>
<path d="M253.741 159.283C253.741 161.698 252.28 165.38 250.942 167.54C250.791 167.785 250.58 167.988 250.329 168.128C250.077 168.269 249.794 168.343 249.506 168.342H240.019C239.727 168.342 239.44 168.266 239.186 168.122C238.932 167.978 238.72 167.77 238.57 167.519C237.235 165.29 235.774 161.35 235.774 158.932C235.759 157.471 235.988 156.018 236.452 154.633H252.983C253.501 156.128 253.758 157.701 253.741 159.283Z" fill="#F7F3EF" stroke="#070707" stroke-opacity="0.63" stroke-width="1.5" stroke-linecap="round" stroke-linejoin="round"/>
<path d="M255.432 159.195C255.432 162.067 253.692 166.443 252.107 169.016C251.928 169.307 251.677 169.548 251.378 169.715C251.079 169.882 250.743 169.97 250.401 169.97H239.127C238.78 169.971 238.439 169.881 238.138 169.71C237.836 169.539 237.584 169.293 237.405 168.995C235.82 166.345 234.086 161.659 234.086 158.79C234.086 153.028 236.699 148.747 241.171 147.013V135.675L238.743 131.954H248.344V147.013C252.818 148.747 255.432 153.436 255.432 159.195Z" fill="#1C0E0C"/>
<path d="M248.344 134.824H251.55C252.056 134.824 252.553 134.946 253.002 135.18C253.45 135.414 253.835 135.752 254.125 136.167C254.415 136.581 254.6 137.059 254.666 137.561C254.732 138.062 254.677 138.573 254.504 139.048L251.05 148.559" fill="#F7F3EF"/>
<path d="M248.344 134.824H251.55C252.056 134.824 252.553 134.946 253.002 135.18C253.45 135.414 253.835 135.752 254.125 136.167C254.415 136.581 254.6 137.059 254.666 137.561C254.732 138.062 254.677 138.573 254.504 139.048L251.05 148.559" stroke="#070707" stroke-opacity="0.63" stroke-width="1.5" stroke-linecap="round" stroke-linejoin="round"/>
<path d="M199.048 141.502V168.853C199.048 169.203 198.909 169.539 198.662 169.786C198.415 170.033 198.08 170.172 197.731 170.172H187.32C187.147 170.172 186.976 170.139 186.816 170.072C186.655 170.006 186.51 169.909 186.387 169.787C186.265 169.664 186.168 169.519 186.101 169.359C186.035 169.199 186.001 169.027 186.001 168.853V141.502C186 140.583 186.319 139.692 186.904 138.983C187.488 138.274 188.3 137.791 189.202 137.616V131.093H195.849V137.616C196.75 137.791 197.562 138.275 198.146 138.984C198.729 139.693 199.048 140.583 199.048 141.502Z" fill="#F7F3EF" stroke="#070707" stroke-opacity="0.63" stroke-width="1.5" stroke-linecap="round" stroke-linejoin="round"/>
<path d="M197.133 145.434V167.081C197.133 167.873 196.571 168.515 195.875 168.515H189.174C188.48 168.515 187.916 167.873 187.916 167.081V145.434H197.133Z" fill="#1C0E0C"/>
<path d="M196.731 130.071H188.318C187.983 130.071 187.712 130.343 187.712 130.678V131.583C187.712 131.918 187.983 132.19 188.318 132.19H196.731C197.065 132.19 197.336 131.918 197.336 131.583V130.678C197.336 130.343 197.065 130.071 196.731 130.071Z" fill="#F7F3EF" stroke="#070707" stroke-opacity="0.63" stroke-width="1.5" stroke-linecap="round" stroke-linejoin="round"/>
<path d="M25.5836 183.602H11.7737V190.496L25.5836 188.368V183.602Z" fill="#F7F3EF" stroke="#070707" stroke-opacity="0.63" stroke-width="1.5" stroke-linecap="round" stroke-linejoin="round"/>
<path d="M25.3773 205.044H254.213" stroke="#070707" stroke-opacity="0.63" stroke-width="1.5" stroke-linecap="round" stroke-linejoin="round"/>
<path d="M279 170.982H1V183.602H279V170.982Z" fill="#F7F3EF" stroke="#070707" stroke-opacity="0.63" stroke-width="1.5" stroke-linecap="round" stroke-linejoin="round"/>
<path d="M25.5836 183.602H11.7737V205.044H25.5836V183.602Z" fill="#F7F3EF" stroke="#070707" stroke-opacity="0.63" stroke-width="1.5" stroke-linecap="round" stroke-linejoin="round"/>
<path d="M268.44 183.602H254.628V190.496L268.44 188.368V183.602Z" fill="#F7F3EF" stroke="#070707" stroke-opacity="0.63" stroke-width="1.5" stroke-linecap="round" stroke-linejoin="round"/>
<path d="M268.438 183.602H254.628V205.044H268.438V183.602Z" fill="#F7F3EF" stroke="#070707" stroke-opacity="0.63" stroke-width="1.5" stroke-linecap="round" stroke-linejoin="round"/>
<path d="M50.4172 222.856V247.519C50.4172 256.529 52.7627 262.905 57.2732 271C57.2732 271 65.1318 247.818 65.7015 225.712L50.4172 222.856Z" fill="#F7F3EF" stroke="#070707" stroke-opacity="0.63" stroke-width="1.5" stroke-linecap="round" stroke-linejoin="round"/>
<path d="M57.2732 224.113L50.4172 222.856V199.873C50.4172 198.214 51.9508 196.867 53.8452 196.867C55.7371 196.867 57.2732 198.214 57.2732 199.873V224.113Z" fill="#F7F3EF" stroke="#070707" stroke-opacity="0.63" stroke-width="1.5" stroke-linecap="round" stroke-linejoin="round"/>
<path d="M88.2359 222.856H79.2278V271C79.2278 271 88.2359 254.971 88.2359 222.856Z" fill="#F7F3EF" stroke="#070707" stroke-opacity="0.63" stroke-width="1.5" stroke-linecap="round" stroke-linejoin="round"/>
<path d="M86.0838 222.856H79.2278V199.873C79.2278 198.214 80.7614 196.867 82.6558 196.867C84.5476 196.867 86.0838 198.214 86.0838 199.873V222.856Z" fill="#F7F3EF" stroke="#070707" stroke-opacity="0.63" stroke-width="1.5" stroke-linecap="round" stroke-linejoin="round"/>
<path d="M112.863 225.614C112.744 225.722 112.648 225.854 112.582 226.001C112.517 226.148 112.483 226.307 112.483 226.468C112.483 226.63 112.517 226.789 112.582 226.936C112.648 227.083 112.744 227.215 112.863 227.322C112.913 227.365 112.953 227.418 112.98 227.478C113.007 227.538 113.022 227.603 113.022 227.668C113.022 227.734 113.007 227.799 112.98 227.858C112.953 227.918 112.913 227.971 112.863 228.014C112.744 228.122 112.648 228.254 112.582 228.401C112.517 228.549 112.483 228.708 112.483 228.869C112.483 229.031 112.517 229.19 112.582 229.338C112.648 229.485 112.744 229.617 112.863 229.725C112.913 229.767 112.953 229.82 112.981 229.879C113.009 229.939 113.023 230.004 113.023 230.069C113.023 230.135 113.009 230.2 112.981 230.259C112.953 230.319 112.913 230.371 112.863 230.414C112.744 230.521 112.648 230.653 112.582 230.8C112.517 230.947 112.483 231.107 112.483 231.268C112.483 231.429 112.517 231.588 112.582 231.735C112.648 231.883 112.744 232.014 112.863 232.122C112.913 232.165 112.953 232.218 112.98 232.278C113.007 232.337 113.022 232.402 113.022 232.468C113.022 232.533 113.007 232.598 112.98 232.658C112.953 232.717 112.913 232.771 112.863 232.813C112.744 232.921 112.648 233.053 112.582 233.2C112.517 233.347 112.483 233.506 112.483 233.667C112.483 233.829 112.517 233.988 112.582 234.135C112.648 234.282 112.744 234.414 112.863 234.522C112.913 234.564 112.954 234.617 112.981 234.677C113.009 234.737 113.023 234.802 113.023 234.867C113.023 234.933 113.009 234.998 112.981 235.058C112.954 235.117 112.913 235.17 112.863 235.213C112.744 235.321 112.648 235.453 112.582 235.6C112.517 235.747 112.483 235.906 112.483 236.067C112.483 236.228 112.517 236.388 112.582 236.535C112.648 236.682 112.744 236.814 112.863 236.921C112.913 236.964 112.953 237.017 112.98 237.077C113.007 237.137 113.022 237.201 113.022 237.267C113.022 237.333 113.007 237.398 112.98 237.457C112.953 237.517 112.913 237.57 112.863 237.613C112.744 237.72 112.648 237.852 112.582 237.999C112.517 238.146 112.483 238.306 112.483 238.467C112.483 238.628 112.517 238.787 112.582 238.934C112.648 239.082 112.744 239.213 112.863 239.321C112.913 239.364 112.954 239.417 112.981 239.476C113.009 239.536 113.023 239.601 113.023 239.667C113.023 239.733 113.009 239.797 112.981 239.857C112.954 239.917 112.913 239.97 112.863 240.013C112.744 240.12 112.648 240.252 112.582 240.399C112.517 240.546 112.483 240.705 112.483 240.867C112.483 241.028 112.517 241.187 112.582 241.334C112.648 241.481 112.744 241.613 112.863 241.721C112.913 241.764 112.953 241.817 112.98 241.876C113.007 241.936 113.022 242.001 113.022 242.066C113.022 242.132 113.007 242.197 112.98 242.257C112.953 242.316 112.913 242.369 112.863 242.412C112.744 242.52 112.648 242.652 112.582 242.799C112.517 242.947 112.483 243.106 112.483 243.268C112.483 243.429 112.517 243.588 112.582 243.736C112.648 243.883 112.744 244.015 112.863 244.123C112.913 244.166 112.954 244.219 112.981 244.278C113.009 244.338 113.023 244.403 113.023 244.469C113.023 244.535 113.009 244.599 112.981 244.659C112.954 244.719 112.913 244.772 112.863 244.815C112.744 244.922 112.648 245.054 112.582 245.201C112.517 245.348 112.483 245.507 112.483 245.669C112.483 245.83 112.517 245.989 112.582 246.136C112.648 246.283 112.744 246.415 112.863 246.523C112.913 246.566 112.953 246.619 112.98 246.678C113.007 246.738 113.022 246.803 113.022 246.868C113.022 246.934 113.007 246.999 112.98 247.059C112.953 247.118 112.913 247.171 112.863 247.214C112.744 247.322 112.648 247.454 112.582 247.601C112.517 247.749 112.483 247.908 112.483 248.07C112.483 248.231 112.517 248.39 112.582 248.538C112.648 248.685 112.744 248.817 112.863 248.925C112.913 248.968 112.954 249.021 112.981 249.08C113.009 249.14 113.023 249.205 113.023 249.271C113.023 249.336 113.009 249.401 112.981 249.461C112.954 249.521 112.913 249.574 112.863 249.616C112.744 249.724 112.648 249.856 112.582 250.003C112.517 250.15 112.483 250.309 112.483 250.471C112.483 250.632 112.517 250.791 112.582 250.938C112.648 251.085 112.744 251.217 112.863 251.325C112.913 251.368 112.953 251.421 112.98 251.48C113.007 251.54 113.022 251.605 113.022 251.67C113.022 251.736 113.007 251.801 112.98 251.861C112.953 251.92 112.913 251.973 112.863 252.016C112.744 252.124 112.648 252.256 112.582 252.403C112.517 252.551 112.483 252.71 112.483 252.872C112.483 253.033 112.517 253.192 112.582 253.34C112.648 253.487 112.744 253.619 112.863 253.727C112.913 253.77 112.954 253.823 112.981 253.882C113.009 253.942 113.023 254.007 113.023 254.073C113.023 254.138 113.009 254.203 112.981 254.263C112.954 254.323 112.913 254.376 112.863 254.418C112.744 254.526 112.648 254.658 112.582 254.806C112.517 254.953 112.483 255.113 112.483 255.274C112.483 255.435 112.517 255.595 112.582 255.742C112.648 255.889 112.744 256.021 112.863 256.129C112.913 256.172 112.953 256.225 112.98 256.285C113.007 256.345 113.022 256.409 113.022 256.475C113.022 256.541 113.007 256.605 112.98 256.665C112.953 256.725 112.913 256.778 112.863 256.821C112.744 256.929 112.648 257.061 112.582 257.208C112.517 257.355 112.483 257.515 112.483 257.676C112.483 257.837 112.517 257.997 112.582 258.144C112.648 258.292 112.744 258.424 112.863 258.532C112.913 258.574 112.954 258.627 112.981 258.687C113.009 258.747 113.023 258.812 113.023 258.877C113.023 258.943 113.009 259.008 112.981 259.068C112.954 259.127 112.913 259.18 112.863 259.223C112.744 259.331 112.648 259.462 112.582 259.61C112.517 259.757 112.483 259.916 112.483 260.077C112.483 260.238 112.517 260.398 112.582 260.545C112.648 260.692 112.744 260.824 112.863 260.931C112.913 260.974 112.953 261.027 112.98 261.087C113.007 261.147 113.022 261.211 113.022 261.277C113.022 261.343 113.007 261.407 112.98 261.467C112.953 261.527 112.913 261.58 112.863 261.623C112.744 261.731 112.648 261.863 112.582 262.01C112.517 262.157 112.483 262.317 112.483 262.478C112.483 262.639 112.517 262.799 112.582 262.946C112.648 263.094 112.744 263.226 112.863 263.334C112.913 263.376 112.953 263.429 112.981 263.488C113.009 263.548 113.023 263.612 113.023 263.678C113.023 263.744 113.009 263.808 112.981 263.868C112.953 263.927 112.913 263.98 112.863 264.022C112.744 264.13 112.648 264.262 112.582 264.409C112.517 264.556 112.483 264.715 112.483 264.877C112.483 265.038 112.517 265.197 112.582 265.344C112.648 265.491 112.744 265.623 112.863 265.731C112.913 265.773 112.953 265.827 112.98 265.886C113.007 265.946 113.022 266.011 113.022 266.076C113.022 266.142 113.007 266.207 112.98 266.267C112.953 266.326 112.913 266.379 112.863 266.422C112.744 266.53 112.648 266.662 112.582 266.809C112.517 266.956 112.483 267.115 112.483 267.276C112.483 267.437 112.517 267.597 112.582 267.744C112.648 267.891 112.744 268.023 112.863 268.13C112.913 268.173 112.954 268.226 112.981 268.286C113.009 268.345 113.023 268.41 113.023 268.476C113.023 268.542 113.009 268.607 112.981 268.667C112.954 268.726 112.913 268.779 112.863 268.822C112.649 269.057 112.517 269.356 112.487 269.673C112.487 269.931 112.487 270.876 113.196 270.876H112.869C107.031 270.876 102.301 266.727 102.301 261.61V222.856H113.198C112.845 222.856 113.098 222.99 112.866 223.207C112.746 223.315 112.65 223.447 112.585 223.594C112.519 223.741 112.485 223.901 112.485 224.062C112.485 224.224 112.519 224.383 112.585 224.53C112.65 224.678 112.746 224.81 112.866 224.918C112.916 224.96 112.956 225.013 112.984 225.073C113.011 225.133 113.025 225.198 113.025 225.263C113.025 225.329 113.011 225.394 112.984 225.454C112.956 225.514 112.916 225.567 112.866 225.609L112.863 225.614Z" fill="#F7F3EF" stroke="#070707" stroke-opacity="0.63" stroke-width="1.5" stroke-linecap="round" stroke-linejoin="round"/>
<path d="M109.162 222.856H102.306V199.873C102.306 198.214 103.853 196.867 105.734 196.867C107.629 196.867 109.162 198.214 109.162 199.873V222.856Z" fill="#F7F3EF" stroke="#070707" stroke-opacity="0.63" stroke-width="1.5" stroke-linecap="round" stroke-linejoin="round"/>
<path d="M145.455 237.652C145.455 243.194 144.401 248.295 143.311 252.341H127.091C126.001 252.341 125.176 251.472 125.385 250.535C126.272 246.299 126.704 241.98 126.673 237.652C126.673 232.057 126.014 226.917 124.908 222.856H143.275C144.388 226.917 145.455 232.057 145.455 237.652Z" fill="#F7F3EF" stroke="#070707" stroke-opacity="0.63" stroke-width="1.5" stroke-linecap="round" stroke-linejoin="round"/>
<path d="M131.735 222.856H124.885V199.873C124.885 198.214 126.418 196.867 128.313 196.867C130.204 196.867 131.741 198.214 131.741 199.873L131.735 222.856Z" fill="#F7F3EF" stroke="#070707" stroke-opacity="0.63" stroke-width="1.5" stroke-linecap="round" stroke-linejoin="round"/>
<path d="M167.294 222.65C167.036 239.422 159.162 251.709 159.162 251.709V222.65H167.294Z" fill="#F7F3EF" stroke="#070707" stroke-opacity="0.63" stroke-width="1.5" stroke-linecap="round" stroke-linejoin="round"/>
<path d="M164.438 222.65H159.165V199.667C159.165 198.119 160.345 196.87 161.801 196.87C163.26 196.87 164.441 198.121 164.441 199.667L164.438 222.65Z" fill="#F7F3EF" stroke="#070707" stroke-opacity="0.63" stroke-width="1.5" stroke-linecap="round" stroke-linejoin="round"/>
<path d="M198.726 231.573V231.588C198.722 231.97 198.568 232.336 198.296 232.604C198.024 232.873 197.657 233.022 197.275 233.02H197.074C197.136 232.525 197.167 232.027 197.166 231.529C197.166 225.728 193.014 221.024 187.888 221.024C182.761 221.024 178.609 225.728 178.609 231.529C178.608 232.027 178.639 232.525 178.702 233.02H178.495C178.113 233.022 177.746 232.873 177.474 232.604C177.202 232.336 177.048 231.97 177.044 231.588V231.573C177.044 226.949 179.302 222.923 182.637 220.831C183.492 220.304 184.199 219.568 184.691 218.692C185.183 217.816 185.444 216.83 185.449 215.825V199.486C185.449 198.039 186.537 196.867 187.88 196.867C188.204 196.869 188.524 196.939 188.82 197.072C189.116 197.205 189.38 197.399 189.596 197.641C190.06 198.145 190.315 198.806 190.31 199.491V215.83C190.316 216.834 190.577 217.821 191.068 218.697C191.56 219.573 192.266 220.309 193.12 220.836C196.468 222.923 198.726 226.949 198.726 231.573Z" fill="#F7F3EF" stroke="#070707" stroke-opacity="0.63" stroke-width="1.5" stroke-linecap="round" stroke-linejoin="round"/>
<path d="M195.28 230.592H180.498C180.248 230.592 180 230.642 179.769 230.738C179.538 230.834 179.329 230.975 179.152 231.152C178.975 231.329 178.835 231.54 178.74 231.771C178.644 232.003 178.595 232.251 178.596 232.501V234.207C178.595 234.457 178.644 234.705 178.74 234.936C178.835 235.168 178.975 235.378 179.152 235.555C179.329 235.732 179.539 235.873 179.769 235.968C180 236.064 180.248 236.114 180.498 236.114H195.28C195.785 236.114 196.27 235.913 196.627 235.555C196.985 235.198 197.186 234.713 197.187 234.207V232.501C197.187 231.995 196.986 231.509 196.628 231.151C196.271 230.793 195.785 230.592 195.28 230.592ZM195.519 234.385H180.258V232.398H195.519V234.385Z" fill="#070707" fill-opacity="0.63"/>
<path d="M224.008 221.225H218.732V199.509C218.731 199.162 218.799 198.819 218.932 198.498C219.064 198.177 219.259 197.886 219.504 197.64C219.749 197.395 220.04 197.2 220.361 197.068C220.681 196.935 221.024 196.867 221.371 196.867C221.717 196.867 222.061 196.936 222.381 197.068C222.701 197.201 222.991 197.396 223.236 197.641C223.481 197.887 223.675 198.178 223.808 198.499C223.94 198.819 224.008 199.163 224.008 199.509V221.225Z" fill="#F7F3EF" stroke="#070707" stroke-opacity="0.63" stroke-width="1.5" stroke-linecap="round" stroke-linejoin="round"/>
<path d="M228.472 240.789C232.395 236.862 232.395 230.495 228.472 226.568C224.55 222.642 218.19 222.642 214.267 226.568C210.345 230.495 210.345 236.862 214.267 240.789C218.19 244.716 224.55 244.716 228.472 240.789Z" fill="#F7F3EF" stroke="#070707" stroke-opacity="0.63" stroke-width="1.5" stroke-linecap="round" stroke-linejoin="round"/>
<path d="M223.259 234.161C223.508 233.12 222.867 232.075 221.827 231.826C220.788 231.577 219.743 232.218 219.494 233.259C219.245 234.3 219.887 235.346 220.926 235.595C221.966 235.844 223.01 235.202 223.259 234.161Z" fill="#F7F3EF" stroke="#070707" stroke-opacity="0.63" stroke-width="1.5" stroke-linecap="round" stroke-linejoin="round"/>
<path d="M210.221 227.895C211.28 225.851 212.881 224.137 214.847 222.941C216.813 221.745 219.069 221.112 221.37 221.112C223.67 221.112 225.927 221.745 227.893 222.941C229.859 224.137 231.459 225.851 232.518 227.895" stroke="#070707" stroke-opacity="0.63" stroke-width="1.5" stroke-linecap="round" stroke-linejoin="round"/>
<path d="M221.371 221.112V233.691" stroke="#070707" stroke-opacity="0.63" stroke-width="1.5" stroke-linecap="round" stroke-linejoin="round"/>
<path d="M24.385 101.837H11.1344V108.731L24.385 106.6V101.837Z" fill="#F7F3EF" stroke="#070707" stroke-opacity="0.63" stroke-width="1.5" stroke-linecap="round" stroke-linejoin="round"/>
<path d="M1 101.834L279 101.834V89.2137L1 89.2137V101.834Z" fill="#F7F3EF" stroke="#070707" stroke-opacity="0.63" stroke-width="1.5" stroke-linecap="round" stroke-linejoin="round"/>
<path d="M255.411 123.276H268.662V101.834H255.411V123.276Z" fill="#F7F3EF" stroke="#070707" stroke-opacity="0.63" stroke-width="1.5" stroke-linecap="round" stroke-linejoin="round"/>
<path d="M268.665 101.837H255.414V108.731L268.665 106.6V101.837Z" fill="#F7F3EF" stroke="#070707" stroke-opacity="0.63" stroke-width="1.5" stroke-linecap="round" stroke-linejoin="round"/>
<path d="M11.1345 123.276H24.3851L24.3851 101.834H11.1345L11.1345 123.276Z" fill="#F7F3EF" stroke="#070707" stroke-opacity="0.63" stroke-width="1.5" stroke-linecap="round" stroke-linejoin="round"/>
<path d="M268.577 48.9941C268.577 49.1043 268.556 49.2135 268.514 49.3154C268.472 49.4173 268.41 49.5099 268.332 49.5878C268.254 49.6657 268.162 49.7275 268.06 49.7695C267.958 49.8115 267.849 49.833 267.739 49.8327H244.8V55.2384C244.8 56.5428 244.282 57.7937 243.361 58.7161C242.44 59.6384 241.19 60.1565 239.887 60.1565H237.63C236.984 60.1569 236.345 60.0299 235.749 59.7829C235.152 59.5359 234.611 59.1737 234.154 58.717C233.698 58.2602 233.336 57.718 233.089 57.1211C232.842 56.5243 232.714 55.8845 232.714 55.2384V48.1477H267.734C267.845 48.1474 267.955 48.169 268.058 48.2115C268.16 48.2539 268.253 48.3163 268.332 48.395C268.41 48.4737 268.472 48.5671 268.514 48.67C268.556 48.7728 268.578 48.8829 268.577 48.9941Z" fill="#F7F3EF" stroke="#070707" stroke-opacity="0.63" stroke-width="1.5" stroke-linecap="round" stroke-linejoin="round"/>
<path d="M216.268 89.1515H209.994L203.924 45.8253H210.198L216.268 89.1515Z" fill="#F7F3EF" stroke="#070707" stroke-opacity="0.63" stroke-width="1.5" stroke-linecap="round" stroke-linejoin="round"/>
<path d="M209.994 89.1515H180.529L186.599 45.8253H203.924L209.994 89.1515Z" fill="#F7F3EF" stroke="#070707" stroke-opacity="0.63" stroke-width="1.5" stroke-linecap="round" stroke-linejoin="round"/>
<path d="M190.8 51.0405H190.751C190.253 51.0405 189.849 51.4449 189.849 51.9436V53.8686C189.849 54.3673 190.253 54.7717 190.751 54.7717H190.8C191.298 54.7717 191.702 54.3673 191.702 53.8686V51.9436C191.702 51.4449 191.298 51.0405 190.8 51.0405Z" fill="#F7F3EF" stroke="#070707" stroke-opacity="0.63" stroke-width="1.5" stroke-linecap="round" stroke-linejoin="round"/>
<path d="M195.05 51.0405H195.001C194.503 51.0405 194.099 51.4449 194.099 51.9436V53.8686C194.099 54.3673 194.503 54.7717 195.001 54.7717H195.05C195.548 54.7717 195.952 54.3673 195.952 53.8686V51.9436C195.952 51.4449 195.548 51.0405 195.05 51.0405Z" fill="#F7F3EF" stroke="#070707" stroke-opacity="0.63" stroke-width="1.5" stroke-linecap="round" stroke-linejoin="round"/>
<path d="M199.3 51.0405H199.251C198.753 51.0405 198.349 51.4449 198.349 51.9436V53.8686C198.349 54.3673 198.753 54.7717 199.251 54.7717H199.3C199.799 54.7717 200.203 54.3673 200.203 53.8686V51.9436C200.203 51.4449 199.799 51.0405 199.3 51.0405Z" fill="#F7F3EF" stroke="#070707" stroke-opacity="0.63" stroke-width="1.5" stroke-linecap="round" stroke-linejoin="round"/>
<path d="M188.777 57.9219H188.728C188.23 57.9219 187.826 58.3262 187.826 58.825V60.7499C187.826 61.2487 188.23 61.653 188.728 61.653H188.777C189.275 61.653 189.679 61.2487 189.679 60.7499V58.825C189.679 58.3262 189.275 57.9219 188.777 57.9219Z" fill="#F7F3EF" stroke="#070707" stroke-opacity="0.63" stroke-width="1.5" stroke-linecap="round" stroke-linejoin="round"/>
<path d="M193.027 57.9219H192.978C192.48 57.9219 192.076 58.3262 192.076 58.825V60.7499C192.076 61.2487 192.48 61.653 192.978 61.653H193.027C193.525 61.653 193.929 61.2487 193.929 60.7499V58.825C193.929 58.3262 193.525 57.9219 193.027 57.9219Z" fill="#F7F3EF" stroke="#070707" stroke-opacity="0.63" stroke-width="1.5" stroke-linecap="round" stroke-linejoin="round"/>
<path d="M197.277 57.9219H197.228C196.73 57.9219 196.326 58.3262 196.326 58.825V60.7499C196.326 61.2487 196.73 61.653 197.228 61.653H197.277C197.775 61.653 198.179 61.2487 198.179 60.7499V58.825C198.179 58.3262 197.775 57.9219 197.277 57.9219Z" fill="#F7F3EF" stroke="#070707" stroke-opacity="0.63" stroke-width="1.5" stroke-linecap="round" stroke-linejoin="round"/>
<path d="M201.527 57.9219H201.478C200.98 57.9219 200.576 58.3262 200.576 58.825V60.7499C200.576 61.2487 200.98 61.653 201.478 61.653H201.527C202.026 61.653 202.429 61.2487 202.429 60.7499V58.825C202.429 58.3262 202.026 57.9219 201.527 57.9219Z" fill="#F7F3EF" stroke="#070707" stroke-opacity="0.63" stroke-width="1.5" stroke-linecap="round" stroke-linejoin="round"/>
<path d="M188.777 64.8038H188.728C188.23 64.8038 187.826 65.2082 187.826 65.7069V67.6319C187.826 68.1306 188.23 68.535 188.728 68.535H188.777C189.275 68.535 189.679 68.1306 189.679 67.6319V65.7069C189.679 65.2082 189.275 64.8038 188.777 64.8038Z" fill="#F7F3EF" stroke="#070707" stroke-opacity="0.63" stroke-width="1.5" stroke-linecap="round" stroke-linejoin="round"/>
<path d="M193.027 64.8038H192.978C192.48 64.8038 192.076 65.2082 192.076 65.7069V67.6319C192.076 68.1306 192.48 68.535 192.978 68.535H193.027C193.525 68.535 193.929 68.1306 193.929 67.6319V65.7069C193.929 65.2082 193.525 64.8038 193.027 64.8038Z" fill="#F7F3EF" stroke="#070707" stroke-opacity="0.63" stroke-width="1.5" stroke-linecap="round" stroke-linejoin="round"/>
<path d="M197.277 64.8038H197.228C196.73 64.8038 196.326 65.2082 196.326 65.7069V67.6319C196.326 68.1306 196.73 68.535 197.228 68.535H197.277C197.775 68.535 198.179 68.1306 198.179 67.6319V65.7069C198.179 65.2082 197.775 64.8038 197.277 64.8038Z" fill="#F7F3EF" stroke="#070707" stroke-opacity="0.63" stroke-width="1.5" stroke-linecap="round" stroke-linejoin="round"/>
<path d="M201.527 64.8038H201.478C200.98 64.8038 200.576 65.2082 200.576 65.7069V67.6319C200.576 68.1306 200.98 68.535 201.478 68.535H201.527C202.026 68.535 202.429 68.1306 202.429 67.6319V65.7069C202.429 65.2082 202.026 64.8038 201.527 64.8038Z" fill="#F7F3EF" stroke="#070707" stroke-opacity="0.63" stroke-width="1.5" stroke-linecap="round" stroke-linejoin="round"/>
<path d="M186.753 71.6853H186.704C186.206 71.6853 185.802 72.0896 185.802 72.5884V74.5133C185.802 75.0121 186.206 75.4165 186.704 75.4165H186.753C187.252 75.4165 187.656 75.0121 187.656 74.5133V72.5884C187.656 72.0896 187.252 71.6853 186.753 71.6853Z" fill="#F7F3EF" stroke="#070707" stroke-opacity="0.63" stroke-width="1.5" stroke-linecap="round" stroke-linejoin="round"/>
<path d="M191.004 71.6853H190.955C190.456 71.6853 190.052 72.0896 190.052 72.5884V74.5133C190.052 75.0121 190.456 75.4165 190.955 75.4165H191.004C191.502 75.4165 191.906 75.0121 191.906 74.5133V72.5884C191.906 72.0896 191.502 71.6853 191.004 71.6853Z" fill="#F7F3EF" stroke="#070707" stroke-opacity="0.63" stroke-width="1.5" stroke-linecap="round" stroke-linejoin="round"/>
<path d="M195.251 71.6853H195.202C194.704 71.6853 194.3 72.0896 194.3 72.5884V74.5133C194.3 75.0121 194.704 75.4165 195.202 75.4165H195.251C195.749 75.4165 196.153 75.0121 196.153 74.5133V72.5884C196.153 72.0896 195.749 71.6853 195.251 71.6853Z" fill="#F7F3EF" stroke="#070707" stroke-opacity="0.63" stroke-width="1.5" stroke-linecap="round" stroke-linejoin="round"/>
<path d="M199.501 71.6853H199.453C198.954 71.6853 198.55 72.0896 198.55 72.5884V74.5133C198.55 75.0121 198.954 75.4165 199.453 75.4165H199.501C200 75.4165 200.404 75.0121 200.404 74.5133V72.5884C200.404 72.0896 200 71.6853 199.501 71.6853Z" fill="#F7F3EF" stroke="#070707" stroke-opacity="0.63" stroke-width="1.5" stroke-linecap="round" stroke-linejoin="round"/>
<path d="M203.752 71.6853H203.703C203.205 71.6853 202.801 72.0896 202.801 72.5884V74.5133C202.801 75.0121 203.205 75.4165 203.703 75.4165H203.752C204.25 75.4165 204.654 75.0121 204.654 74.5133V72.5884C204.654 72.0896 204.25 71.6853 203.752 71.6853Z" fill="#F7F3EF" stroke="#070707" stroke-opacity="0.63" stroke-width="1.5" stroke-linecap="round" stroke-linejoin="round"/>
<path d="M186.753 78.5646H186.704C186.206 78.5646 185.802 78.9689 185.802 79.4677V81.3926C185.802 81.8914 186.206 82.2957 186.704 82.2957H186.753C187.252 82.2957 187.656 81.8914 187.656 81.3926V79.4677C187.656 78.9689 187.252 78.5646 186.753 78.5646Z" fill="#F7F3EF" stroke="#070707" stroke-opacity="0.63" stroke-width="1.5" stroke-linecap="round" stroke-linejoin="round"/>
<path d="M191.004 78.5646H190.955C190.456 78.5646 190.052 78.9689 190.052 79.4677V81.3926C190.052 81.8914 190.456 82.2957 190.955 82.2957H191.004C191.502 82.2957 191.906 81.8914 191.906 81.3926V79.4677C191.906 78.9689 191.502 78.5646 191.004 78.5646Z" fill="#F7F3EF" stroke="#070707" stroke-opacity="0.63" stroke-width="1.5" stroke-linecap="round" stroke-linejoin="round"/>
<path d="M195.251 78.5646H195.202C194.704 78.5646 194.3 78.9689 194.3 79.4677V81.3926C194.3 81.8914 194.704 82.2957 195.202 82.2957H195.251C195.749 82.2957 196.153 81.8914 196.153 81.3926V79.4677C196.153 78.9689 195.749 78.5646 195.251 78.5646Z" fill="#F7F3EF" stroke="#070707" stroke-opacity="0.63" stroke-width="1.5" stroke-linecap="round" stroke-linejoin="round"/>
<path d="M199.501 78.5646H199.453C198.954 78.5646 198.55 78.9689 198.55 79.4677V81.3926C198.55 81.8914 198.954 82.2957 199.453 82.2957H199.501C200 82.2957 200.404 81.8914 200.404 81.3926V79.4677C200.404 78.9689 200 78.5646 199.501 78.5646Z" fill="#F7F3EF" stroke="#070707" stroke-opacity="0.63" stroke-width="1.5" stroke-linecap="round" stroke-linejoin="round"/>
<path d="M203.752 78.5646H203.703C203.205 78.5646 202.801 78.9689 202.801 79.4677V81.3926C202.801 81.8914 203.205 82.2957 203.703 82.2957H203.752C204.25 82.2957 204.654 81.8914 204.654 81.3926V79.4677C204.654 78.9689 204.25 78.5646 203.752 78.5646Z" fill="#F7F3EF" stroke="#070707" stroke-opacity="0.63" stroke-width="1.5" stroke-linecap="round" stroke-linejoin="round"/>
<path d="M202.375 37.9944H194.421C192.347 37.9944 190.357 38.8195 188.89 40.2881C187.423 41.7568 186.599 43.7487 186.599 45.8257H210.198C210.198 43.7487 209.374 41.7568 207.907 40.2881C206.44 38.8195 204.45 37.9944 202.375 37.9944Z" fill="#F7F3EF" stroke="#070707" stroke-opacity="0.63" stroke-width="1.5" stroke-linecap="round" stroke-linejoin="round"/>
<path d="M194.218 37.9944H196.311C198.331 37.9944 200.268 38.7977 201.696 40.2277C203.125 41.6576 203.927 43.597 203.927 45.6192V45.8257H186.599V45.6192C186.599 44.6177 186.796 43.626 187.179 42.7007C187.562 41.7755 188.123 40.9348 188.831 40.2267C189.538 39.5187 190.378 38.9571 191.302 38.5741C192.227 38.191 193.217 37.994 194.218 37.9944Z" fill="#F7F3EF" stroke="#070707" stroke-opacity="0.63" stroke-width="1.5" stroke-linecap="round" stroke-linejoin="round"/>
<path d="M254.934 52.2221V86.1508C254.935 86.9442 254.622 87.7056 254.063 88.2681C253.504 88.8306 252.745 89.1483 251.952 89.1517H233.328C232.933 89.1534 232.542 89.077 232.177 88.927C231.812 88.7769 231.48 88.5561 231.201 88.2772C230.921 87.9983 230.7 87.6669 230.548 87.302C230.397 86.9371 230.32 86.5459 230.32 86.1508V68.4678C230.322 62.7736 228.858 57.1749 226.07 52.2118L254.934 52.2221Z" fill="#F7F3EF" stroke="#070707" stroke-opacity="0.63" stroke-width="1.5" stroke-linecap="round" stroke-linejoin="round"/>
<path d="M254.934 58.696H251.427" stroke="#070707" stroke-opacity="0.63" stroke-width="1.5" stroke-linecap="round" stroke-linejoin="round"/>
<path d="M254.934 66.8679H251.427" stroke="#070707" stroke-opacity="0.63" stroke-width="1.5" stroke-linecap="round" stroke-linejoin="round"/>
<path d="M254.934 62.7831H247.916" stroke="#070707" stroke-opacity="0.63" stroke-width="1.5" stroke-linecap="round" stroke-linejoin="round"/>
<path d="M254.934 70.955H247.916" stroke="#070707" stroke-opacity="0.63" stroke-width="1.5" stroke-linecap="round" stroke-linejoin="round"/>
<path d="M254.934 75.0399H251.427" stroke="#070707" stroke-opacity="0.63" stroke-width="1.5" stroke-linecap="round" stroke-linejoin="round"/>
<path d="M254.934 83.2118H251.427" stroke="#070707" stroke-opacity="0.63" stroke-width="1.5" stroke-linecap="round" stroke-linejoin="round"/>
<path d="M254.934 79.1268H247.916" stroke="#070707" stroke-opacity="0.63" stroke-width="1.5" stroke-linecap="round" stroke-linejoin="round"/>
<path d="M48.2858 13.2644H92.0095V35.1972C92.0095 37.5089 91.0922 39.7259 89.4594 41.3605C87.8265 42.9952 85.612 43.9135 83.3029 43.9135H56.9949C54.6858 43.9135 52.4712 42.9952 50.8384 41.3605C49.2056 39.7259 48.2883 37.5089 48.2883 35.1972V13.2644H48.2858Z" fill="#F7F3EF" stroke="#070707" stroke-opacity="0.63" stroke-width="1.5" stroke-linecap="round" stroke-linejoin="round"/>
<path d="M92.0095 13.2644H99.1103C99.7426 13.2644 100.349 13.5159 100.796 13.9635C101.243 14.4111 101.494 15.0182 101.494 15.6512V15.9815C101.494 16.6145 101.243 17.2216 100.796 17.6692C100.349 18.1168 99.7426 18.3683 99.1103 18.3683H91.9966V13.2644H92.0095Z" fill="#F7F3EF" stroke="#070707" stroke-opacity="0.63" stroke-width="1.5" stroke-linecap="round" stroke-linejoin="round"/>
<path d="M48.2781 18.3656H41.1643C40.532 18.3656 39.9256 18.1141 39.4785 17.6665C39.0314 17.2189 38.7802 16.6118 38.7802 15.9788V15.6485C38.7802 15.0155 39.0314 14.4084 39.4785 13.9608C39.9256 13.5132 40.532 13.2617 41.1643 13.2617H48.2781V18.3656Z" fill="#F7F3EF" stroke="#070707" stroke-opacity="0.63" stroke-width="1.5" stroke-linecap="round" stroke-linejoin="round"/>
<path d="M40.6024 24.0164H99.6825V56.7194C99.6825 59.0311 98.7652 61.2481 97.1324 62.8828C95.4996 64.5174 93.285 65.4357 90.9759 65.4357H49.3193C48.1751 65.4371 47.0418 65.2126 45.9843 64.7752C44.9268 64.3378 43.9657 63.6959 43.1562 62.8864C42.3466 62.0769 41.7043 61.1156 41.2661 60.0574C40.828 58.9992 40.6024 57.8649 40.6024 56.7194V24.0164Z" fill="#F7F3EF" stroke="#070707" stroke-opacity="0.63" stroke-width="1.5" stroke-linecap="round" stroke-linejoin="round"/>
<path d="M99.6824 24.0164H109.294C110.148 24.017 110.966 24.3572 111.57 24.962C112.174 25.5668 112.513 26.3868 112.513 27.2418V27.6856C112.513 28.541 112.173 29.3614 111.569 29.9663C110.965 30.5712 110.146 30.911 109.291 30.911H99.6824V24.0164Z" fill="#F7F3EF" stroke="#070707" stroke-opacity="0.63" stroke-width="1.5" stroke-linecap="round" stroke-linejoin="round"/>
<path d="M40.6127 30.9135H31.0014C30.1487 30.9107 29.3319 30.5697 28.7299 29.9651C28.1279 29.3605 27.7899 28.5417 27.7899 27.688V27.2442C27.7899 26.3888 28.1293 25.5684 28.7336 24.9635C29.3378 24.3587 30.1572 24.0188 31.0117 24.0188H40.6127V30.9135Z" fill="#F7F3EF" stroke="#070707" stroke-opacity="0.63" stroke-width="1.5" stroke-linecap="round" stroke-linejoin="round"/>
<path d="M98.7597 89.0147H41.5406C39.2317 89.014 37.0175 88.0955 35.3848 86.461C33.7522 84.8265 32.8347 82.6099 32.834 80.2984V36.6909H107.466V80.2984C107.466 82.6101 106.549 84.8272 104.916 86.4618C103.283 88.0964 101.069 89.0147 98.7597 89.0147Z" fill="#F7F3EF" stroke="#070707" stroke-opacity="0.63" stroke-width="1.5" stroke-linecap="round" stroke-linejoin="round"/>
<path d="M120.503 45.3818H107.466V39.0342H120.503C121.344 39.0342 122.15 39.3686 122.745 39.9638C123.339 40.559 123.673 41.3662 123.673 42.208C123.673 43.0497 123.339 43.857 122.745 44.4522C122.15 45.0474 121.344 45.3818 120.503 45.3818Z" fill="#F7F3EF" stroke="#070707" stroke-opacity="0.63" stroke-width="1.5" stroke-linecap="round" stroke-linejoin="round"/>
<path d="M19.787 45.3818H32.8288V39.0342H19.787C18.9461 39.0342 18.1398 39.3686 17.5452 39.9638C16.9507 40.559 16.6167 41.3662 16.6167 42.208C16.6164 42.6249 16.6981 43.0377 16.8573 43.4229C17.0165 43.8082 17.25 44.1582 17.5445 44.453C17.8389 44.7477 18.1886 44.9815 18.5733 45.1409C18.9581 45.3003 19.3705 45.3821 19.787 45.3818Z" fill="#F7F3EF" stroke="#070707" stroke-opacity="0.63" stroke-width="1.5" stroke-linecap="round" stroke-linejoin="round"/>
<path d="M107.572 35.5095H32.6845C31.7094 35.5095 30.9189 36.3009 30.9189 37.277V37.2796C30.9189 38.2558 31.7094 39.0472 32.6845 39.0472H107.572C108.547 39.0472 109.338 38.2558 109.338 37.2796V37.277C109.338 36.3009 108.547 35.5095 107.572 35.5095Z" fill="#F7F3EF" stroke="#070707" stroke-opacity="0.63" stroke-width="1.5" stroke-linecap="round" stroke-linejoin="round"/>
<path d="M92.0095 13.2641H48.2858C50.407 9.18722 59.3894 6.12695 70.1502 6.12695C80.911 6.12695 89.8908 9.18722 92.0095 13.2641Z" fill="#F7F3EF" stroke="#070707" stroke-opacity="0.63" stroke-width="1.5" stroke-linecap="round" stroke-linejoin="round"/>
<path d="M74.3359 1H65.9592C65.7716 1.00035 65.5869 1.04657 65.4211 1.13464C65.2554 1.22271 65.1137 1.34996 65.0083 1.50535C64.9028 1.66073 64.8369 1.83953 64.8162 2.02622C64.7955 2.21291 64.8207 2.40184 64.8896 2.57657L66.3767 6.33611H73.9235L75.3978 2.57657C75.4664 2.40244 75.4916 2.21422 75.4713 2.02814C75.451 1.84206 75.3858 1.66372 75.2813 1.50852C75.1767 1.35332 75.036 1.22593 74.8713 1.13733C74.7066 1.04874 74.5228 1.0016 74.3359 1Z" fill="#F7F3EF" stroke="#070707" stroke-opacity="0.63" stroke-width="1.5" stroke-linecap="round" stroke-linejoin="round"/>
<path d="M160.567 55.8857V86.4497C160.567 87.9437 159.007 89.1513 157.082 89.1513H135.413C133.488 89.1513 131.929 87.9437 131.929 86.4497V70.5188C131.929 65.3916 130.225 60.3523 126.983 55.8857H160.567Z" fill="#F7F3EF" stroke="#070707" stroke-opacity="0.63" stroke-width="1.5" stroke-linecap="round" stroke-linejoin="round"/>
<path d="M172.567 57.6484V72.5188C171.87 72.5201 171.202 72.2445 170.708 71.7525C170.214 71.2604 169.935 70.5922 169.933 69.8946V60.3732C169.933 59.9051 169.747 59.4562 169.417 59.1252C169.086 58.7942 168.638 58.6082 168.17 58.6082H160.569V55.886H170.799C171.031 55.885 171.261 55.9298 171.475 56.0179C171.69 56.106 171.885 56.2357 172.049 56.3994C172.213 56.5632 172.343 56.7578 172.432 56.9721C172.521 57.1865 172.567 57.4163 172.567 57.6484Z" fill="#F7F3EF" stroke="#070707" stroke-opacity="0.63" stroke-width="1.5" stroke-linecap="round" stroke-linejoin="round"/>
</svg>
