<svg width="252" height="319" viewBox="0 0 252 319" fill="none" xmlns="http://www.w3.org/2000/svg">
<g clip-path="url(#clip0_1059_7268)">
<path d="M228.437 297.689H22.3188" stroke="#070707" stroke-opacity="0.57" stroke-width="1.5" stroke-linecap="round" stroke-linejoin="round"/>
<path d="M59.5041 87.3458V111.114H38.4471" stroke="#070707" stroke-opacity="0.57" stroke-width="1.5" stroke-linecap="round" stroke-linejoin="round"/>
<path d="M80.563 87.3458V111.114H59.5042V87.3458" stroke="#070707" stroke-opacity="0.57" stroke-width="1.5" stroke-linecap="round" stroke-linejoin="round"/>
<path d="M38.4471 134.882H59.5041V111.114H38.4471" stroke="#070707" stroke-opacity="0.57" stroke-width="1.5" stroke-linecap="round" stroke-linejoin="round"/>
<path d="M80.5611 111.114H59.5042V134.882H80.5611V111.114Z" stroke="#070707" stroke-opacity="0.57" stroke-width="1.5" stroke-linecap="round" stroke-linejoin="round"/>
<path d="M101.62 87.3458V111.114H80.563V87.3458" stroke="#070707" stroke-opacity="0.57" stroke-width="1.5" stroke-linecap="round" stroke-linejoin="round"/>
<path d="M122.677 87.3458V111.114H101.62V87.3458" stroke="#070707" stroke-opacity="0.57" stroke-width="1.5" stroke-linecap="round" stroke-linejoin="round"/>
<path d="M101.62 111.114H80.563V134.882H101.62V111.114Z" stroke="#070707" stroke-opacity="0.57" stroke-width="1.5" stroke-linecap="round" stroke-linejoin="round"/>
<path d="M122.677 111.114H101.62V134.882H122.677V111.114Z" stroke="#070707" stroke-opacity="0.57" stroke-width="1.5" stroke-linecap="round" stroke-linejoin="round"/>
<path d="M38.4471 134.882H59.5041V158.65H38.4471" stroke="#070707" stroke-opacity="0.57" stroke-width="1.5" stroke-linecap="round" stroke-linejoin="round"/>
<path d="M80.5611 134.882H59.5042V158.65H80.5611V134.882Z" stroke="#070707" stroke-opacity="0.57" stroke-width="1.5" stroke-linecap="round" stroke-linejoin="round"/>
<path d="M38.4471 158.65H59.5041V182.419H38.4471" stroke="#070707" stroke-opacity="0.57" stroke-width="1.5" stroke-linecap="round" stroke-linejoin="round"/>
<path d="M80.5611 158.65H59.5042V182.419H80.5611V158.65Z" stroke="#070707" stroke-opacity="0.57" stroke-width="1.5" stroke-linecap="round" stroke-linejoin="round"/>
<path d="M101.62 134.882H80.563V158.65H101.62V134.882Z" stroke="#070707" stroke-opacity="0.57" stroke-width="1.5" stroke-linecap="round" stroke-linejoin="round"/>
<path d="M122.677 134.882H101.62V158.65H122.677V134.882Z" stroke="#070707" stroke-opacity="0.57" stroke-width="1.5" stroke-linecap="round" stroke-linejoin="round"/>
<path d="M101.62 158.65H80.563V182.419H101.62V158.65Z" stroke="#070707" stroke-opacity="0.57" stroke-width="1.5" stroke-linecap="round" stroke-linejoin="round"/>
<path d="M122.677 158.65H101.62V182.419H122.677V158.65Z" stroke="#070707" stroke-opacity="0.57" stroke-width="1.5" stroke-linecap="round" stroke-linejoin="round"/>
<path d="M143.736 87.3458V111.114H122.677V87.3458" stroke="#070707" stroke-opacity="0.57" stroke-width="1.5" stroke-linecap="round" stroke-linejoin="round"/>
<path d="M143.736 87.3458V111.114H164.793V87.3458" stroke="#070707" stroke-opacity="0.57" stroke-width="1.5" stroke-linecap="round" stroke-linejoin="round"/>
<path d="M143.734 111.114H122.677V134.882H143.734V111.114Z" stroke="#070707" stroke-opacity="0.57" stroke-width="1.5" stroke-linecap="round" stroke-linejoin="round"/>
<path d="M164.793 111.114H143.736V134.882H164.793V111.114Z" stroke="#070707" stroke-opacity="0.57" stroke-width="1.5" stroke-linecap="round" stroke-linejoin="round"/>
<path d="M185.852 87.3458V111.114H164.793V87.3458" stroke="#070707" stroke-opacity="0.57" stroke-width="1.5" stroke-linecap="round" stroke-linejoin="round"/>
<path d="M206.909 111.114H185.852V134.882H206.909" stroke="#070707" stroke-opacity="0.57" stroke-width="1.5" stroke-linecap="round" stroke-linejoin="round"/>
<path d="M206.909 111.114H185.852V87.3458" stroke="#070707" stroke-opacity="0.57" stroke-width="1.5" stroke-linecap="round" stroke-linejoin="round"/>
<path d="M185.85 111.114H164.793V134.882H185.85V111.114Z" stroke="#070707" stroke-opacity="0.57" stroke-width="1.5" stroke-linecap="round" stroke-linejoin="round"/>
<path d="M143.734 134.882H122.677V158.65H143.734V134.882Z" stroke="#070707" stroke-opacity="0.57" stroke-width="1.5" stroke-linecap="round" stroke-linejoin="round"/>
<path d="M164.793 134.882H143.736V158.65H164.793V134.882Z" stroke="#070707" stroke-opacity="0.57" stroke-width="1.5" stroke-linecap="round" stroke-linejoin="round"/>
<path d="M143.734 158.65H122.677V182.419H143.734V158.65Z" stroke="#070707" stroke-opacity="0.57" stroke-width="1.5" stroke-linecap="round" stroke-linejoin="round"/>
<path d="M164.793 158.65H143.736V182.419H164.793V158.65Z" stroke="#070707" stroke-opacity="0.57" stroke-width="1.5" stroke-linecap="round" stroke-linejoin="round"/>
<path d="M185.85 134.882H164.793V158.65H185.85V134.882Z" stroke="#070707" stroke-opacity="0.57" stroke-width="1.5" stroke-linecap="round" stroke-linejoin="round"/>
<path d="M206.909 158.65H185.852V182.419H206.909" stroke="#070707" stroke-opacity="0.57" stroke-width="1.5" stroke-linecap="round" stroke-linejoin="round"/>
<path d="M206.909 158.65H185.852V134.882H206.909" stroke="#070707" stroke-opacity="0.57" stroke-width="1.5" stroke-linecap="round" stroke-linejoin="round"/>
<path d="M185.85 158.65H164.793V182.419H185.85V158.65Z" stroke="#070707" stroke-opacity="0.57" stroke-width="1.5" stroke-linecap="round" stroke-linejoin="round"/>
<path d="M98.9565 145.047H138.148V173.369C138.148 174.791 137.57 176.155 136.541 177.161C135.512 178.167 134.116 178.732 132.661 178.732H104.446C102.991 178.732 101.595 178.167 100.566 177.161C99.5366 176.155 98.9585 174.791 98.9585 173.369V145.047H98.9565Z" fill="#F7F3EF" stroke="#070707" stroke-opacity="0.57" stroke-width="1.5" stroke-linecap="round" stroke-linejoin="round"/>
<path d="M138.148 147.849H142.719L147.638 144.855C147.767 144.756 147.86 144.62 147.904 144.466C147.949 144.313 147.941 144.149 147.883 143.999C147.826 143.877 147.741 143.769 147.635 143.683C147.528 143.597 147.403 143.537 147.269 143.506C147.135 143.475 146.995 143.474 146.861 143.504C146.726 143.534 146.6 143.593 146.493 143.678L142.089 146.268H138.148V147.849Z" fill="#F7F3EF" stroke="#070707" stroke-opacity="0.57" stroke-width="1.5" stroke-linecap="round" stroke-linejoin="round"/>
<path d="M98.9546 147.849H94.3821L89.4649 144.855C89.336 144.756 89.2426 144.62 89.1985 144.466C89.1544 144.313 89.1619 144.149 89.2198 143.999C89.2769 143.877 89.3619 143.769 89.4684 143.683C89.5749 143.597 89.7 143.537 89.8342 143.506C89.9683 143.475 90.108 143.474 90.2425 143.504C90.3769 143.534 90.5026 143.593 90.6099 143.678L95.014 146.268H98.9489L98.9546 147.849Z" fill="#F7F3EF" stroke="#070707" stroke-opacity="0.57" stroke-width="1.5" stroke-linecap="round" stroke-linejoin="round"/>
<path d="M138.148 144.997H98.9565C100.856 142.377 108.913 140.403 118.553 140.403C128.192 140.403 136.249 142.375 138.148 144.997Z" fill="#F7F3EF" stroke="#070707" stroke-opacity="0.57" stroke-width="1.5" stroke-linecap="round" stroke-linejoin="round"/>
<path d="M121.781 136.984H115.765C115.19 136.984 114.782 137.511 114.999 137.998L116.063 140.418H121.474L122.547 137.994C122.753 137.508 122.355 136.984 121.781 136.984Z" fill="#F7F3EF" stroke="#070707" stroke-opacity="0.57" stroke-width="1.5" stroke-linecap="round" stroke-linejoin="round"/>
<path d="M77.4783 178.732H55.2667C51.6382 178.732 48.3907 176.382 47.1212 172.834L45.6487 168.717H87.0963L85.6238 172.834C84.3543 176.382 81.1068 178.732 77.4783 178.732Z" fill="#F7F3EF" stroke="#070707" stroke-opacity="0.57" stroke-width="1.5" stroke-linecap="round" stroke-linejoin="round"/>
<path d="M87.5961 167.066H45.1509C44.6961 167.066 44.3275 167.426 44.3275 167.871V167.916C44.3275 168.36 44.6961 168.72 45.1509 168.72H87.5961C88.0508 168.72 88.4194 168.36 88.4194 167.916V167.871C88.4194 167.426 88.0508 167.066 87.5961 167.066Z" fill="#F7F3EF" stroke="#070707" stroke-opacity="0.57" stroke-width="1.5" stroke-linecap="round" stroke-linejoin="round"/>
<path d="M101.744 170.128H86.6233L87.1345 168.722H101.744V170.128Z" fill="#F7F3EF" stroke="#070707" stroke-opacity="0.57" stroke-width="1.5" stroke-linecap="round" stroke-linejoin="round"/>
<path d="M117.028 167.77H102.87C102.108 167.77 101.49 168.374 101.49 169.119V169.401C101.49 170.147 102.108 170.751 102.87 170.751H117.028C117.791 170.751 118.409 170.147 118.409 169.401V169.119C118.409 168.374 117.791 167.77 117.028 167.77Z" fill="#F7F3EF" stroke="#070707" stroke-opacity="0.57" stroke-width="1.5" stroke-linecap="round" stroke-linejoin="round"/>
<path d="M159.058 90.9015C122.844 91.7941 108.952 109.765 117.051 127.706C131.395 159.44 74.5257 152.984 68.3237 159.384C63.1882 164.689 74.631 167.113 74.631 167.113H64.0748C64.0748 167.113 46.407 160.563 53.9149 148.556C61.4228 136.55 82.9374 138.567 82.9374 126.268C82.9374 113.97 43.6191 109.621 54.5219 90.9483L159.058 90.9015Z" fill="#F7F3EF" stroke="#070707" stroke-opacity="0.57" stroke-width="1.5" stroke-linecap="round" stroke-linejoin="round"/>
<path d="M211.104 78.9415H34.8914C33.7968 78.9415 32.9095 79.8087 32.9095 80.8784V88.8354C32.9095 89.9051 33.7968 90.7723 34.8914 90.7723H211.104C212.198 90.7723 213.086 89.9051 213.086 88.8354V80.8784C213.086 79.8087 212.198 78.9415 211.104 78.9415Z" fill="#F7F3EF" stroke="#070707" stroke-opacity="0.57" stroke-width="1.5" stroke-linecap="round" stroke-linejoin="round"/>
<path d="M191.175 78.8255H54.8206L100.636 41.8212H145.361L191.175 78.8255Z" fill="#F7F3EF" stroke="#070707" stroke-opacity="0.57" stroke-width="1.5" stroke-linecap="round" stroke-linejoin="round"/>
<path d="M145.201 16.3782H100.797V41.8212H145.201V16.3782Z" fill="#F7F3EF" stroke="#070707" stroke-opacity="0.57" stroke-width="1.5" stroke-linecap="round" stroke-linejoin="round"/>
<path d="M180.431 103.791H164.672C163.738 103.791 162.842 103.429 162.182 102.784C161.521 102.138 161.149 101.263 161.149 100.35V84.1758H176.908V100.35C176.908 101.263 177.28 102.138 177.94 102.784C178.601 103.429 179.497 103.791 180.431 103.791Z" fill="#F7F3EF" stroke="#070707" stroke-opacity="0.57" stroke-width="1.5" stroke-linecap="round" stroke-linejoin="round"/>
<path d="M177.63 86.6928L174.784 83.5059" stroke="#070707" stroke-opacity="0.57" stroke-width="1.5" stroke-linecap="round" stroke-linejoin="round"/>
<path d="M160.58 86.6928L163.426 83.5059" stroke="#070707" stroke-opacity="0.57" stroke-width="1.5" stroke-linecap="round" stroke-linejoin="round"/>
<path d="M165.934 89.2847H172.622" stroke="#070707" stroke-opacity="0.57" stroke-width="1.5" stroke-linecap="round" stroke-linejoin="round"/>
<path d="M165.934 92.5913H172.622" stroke="#070707" stroke-opacity="0.57" stroke-width="1.5" stroke-linecap="round" stroke-linejoin="round"/>
<path d="M165.934 95.8981H172.622" stroke="#070707" stroke-opacity="0.57" stroke-width="1.5" stroke-linecap="round" stroke-linejoin="round"/>
<path d="M165.934 99.2047H172.622" stroke="#070707" stroke-opacity="0.57" stroke-width="1.5" stroke-linecap="round" stroke-linejoin="round"/>
<path d="M193.999 86.4346H182.522V97.9416H193.999V86.4346Z" fill="#EFAF00" stroke="black" stroke-width="1.5" stroke-linecap="round" stroke-linejoin="round"/>
<path d="M189.256 85.248H187.213V87.417H189.256V85.248Z" fill="#F7F3EF" stroke="#070707" stroke-opacity="0.57" stroke-width="1.5" stroke-linecap="round" stroke-linejoin="round"/>
<path d="M213.07 182.419H32.3333V285.22H213.07V182.419Z" fill="#F7F3EF" stroke="#070707" stroke-opacity="0.57" stroke-width="1.5" stroke-linecap="round" stroke-linejoin="round"/>
<path d="M213.07 190.505H32.3333V210.667H213.07V190.505Z" fill="#F7F3EF" stroke="#070707" stroke-opacity="0.57" stroke-width="1.5" stroke-linecap="round" stroke-linejoin="round"/>
<path d="M213.088 210.667H152.366V285.218H213.088V210.667Z" fill="#F7F3EF" stroke="#070707" stroke-opacity="0.57" stroke-width="1.5" stroke-linecap="round" stroke-linejoin="round"/>
<path d="M206.955 214.52H158.627V274.651H206.955V214.52Z" fill="#F7F3EF" stroke="#070707" stroke-opacity="0.57" stroke-width="1.5" stroke-linecap="round" stroke-linejoin="round"/>
<path d="M144.927 214.52H38.7593V274.651H144.927V214.52Z" fill="#F7F3EF" stroke="#070707" stroke-opacity="0.57" stroke-width="1.5" stroke-linecap="round" stroke-linejoin="round"/>
<path d="M213.069 297.689H207.096L206.955 285.22H213.069V297.689Z" fill="#F7F3EF" stroke="#070707" stroke-opacity="0.57" stroke-width="1.5" stroke-linecap="round" stroke-linejoin="round"/>
<path d="M32.3333 297.689H38.3055L38.4472 285.22H32.3333V297.689Z" fill="#F7F3EF" stroke="#070707" stroke-opacity="0.57" stroke-width="1.5" stroke-linecap="round" stroke-linejoin="round"/>
<path d="M152.283 285.22H146.169V297.691H152.283V285.22Z" fill="#F7F3EF" stroke="#070707" stroke-opacity="0.57" stroke-width="1.5" stroke-linecap="round" stroke-linejoin="round"/>
<path d="M204.883 216.12V231.914L160.63 265.384V216.12H204.883Z" fill="#201F1F" fill-opacity="0.89"/>
<path d="M204.883 241.106V249.367L175.562 272.673H162.3L204.883 241.106Z" fill="#201F1F" fill-opacity="0.89"/>
<path d="M199.778 218.085H165.802C164.99 218.085 164.331 218.728 164.331 219.522V220.377C164.331 221.171 164.99 221.815 165.802 221.815H199.778C200.59 221.815 201.248 221.171 201.248 220.377V219.522C201.248 218.728 200.59 218.085 199.778 218.085Z" fill="#F7F3EF" stroke="#070707" stroke-opacity="0.57" stroke-width="1.5" stroke-linecap="round" stroke-linejoin="round"/>
<path d="M179.35 201.055C179.663 199.167 178.35 197.388 176.418 197.082C174.486 196.776 172.666 198.059 172.353 199.947C172.04 201.836 173.352 203.615 175.285 203.921C177.217 204.226 179.037 202.944 179.35 201.055Z" fill="#F7F3EF" stroke="#070707" stroke-opacity="0.57" stroke-width="1.5" stroke-linecap="round" stroke-linejoin="round"/>
<path d="M190.521 201.285C190.969 199.422 189.788 197.558 187.883 197.12C185.977 196.681 184.069 197.836 183.621 199.698C183.173 201.56 184.354 203.425 186.259 203.863C188.165 204.301 190.073 203.147 190.521 201.285Z" fill="#F7F3EF" stroke="#070707" stroke-opacity="0.57" stroke-width="1.5" stroke-linecap="round" stroke-linejoin="round"/>
<path d="M175.841 200.485V197.023" stroke="#070707" stroke-opacity="0.57" stroke-width="1.5" stroke-linecap="round" stroke-linejoin="round"/>
<path d="M187.068 200.485V197.023" stroke="#070707" stroke-opacity="0.57" stroke-width="1.5" stroke-linecap="round" stroke-linejoin="round"/>
<path d="M58.0065 202.934C59.3906 201.581 59.3906 199.388 58.0065 198.035C56.6223 196.683 54.3782 196.683 52.9941 198.035C51.61 199.388 51.61 201.581 52.9941 202.934C54.3782 204.287 56.6223 204.287 58.0065 202.934Z" fill="#F7F3EF" stroke="#070707" stroke-opacity="0.57" stroke-width="1.5" stroke-linecap="round" stroke-linejoin="round"/>
<path d="M69.2336 202.935C70.6178 201.582 70.6178 199.389 69.2336 198.036C67.8495 196.684 65.6054 196.684 64.2213 198.036C62.8371 199.389 62.8371 201.582 64.2213 202.935C65.6054 204.288 67.8495 204.288 69.2336 202.935Z" fill="#F7F3EF" stroke="#070707" stroke-opacity="0.57" stroke-width="1.5" stroke-linecap="round" stroke-linejoin="round"/>
<path d="M89.2124 201.284C89.6607 199.422 88.4795 197.557 86.5741 197.119C84.6686 196.681 82.7606 197.835 82.3122 199.698C81.8639 201.56 83.0451 203.425 84.9506 203.863C86.856 204.301 88.7641 203.146 89.2124 201.284Z" fill="#F7F3EF" stroke="#070707" stroke-opacity="0.57" stroke-width="1.5" stroke-linecap="round" stroke-linejoin="round"/>
<path d="M99.4954 202.933C100.879 201.58 100.879 199.387 99.4954 198.034C98.1112 196.681 95.8671 196.681 94.483 198.034C93.0989 199.387 93.0989 201.58 94.483 202.933C95.8671 204.286 98.1112 204.286 99.4954 202.933Z" fill="#F7F3EF" stroke="#070707" stroke-opacity="0.57" stroke-width="1.5" stroke-linecap="round" stroke-linejoin="round"/>
<path d="M119.473 201.282C119.921 199.42 118.74 197.555 116.835 197.117C114.929 196.679 113.021 197.834 112.573 199.696C112.125 201.558 113.306 203.423 115.211 203.861C117.117 204.299 119.025 203.145 119.473 201.282Z" fill="#F7F3EF" stroke="#070707" stroke-opacity="0.57" stroke-width="1.5" stroke-linecap="round" stroke-linejoin="round"/>
<path d="M130.701 201.284C131.149 199.422 129.968 197.557 128.063 197.119C126.157 196.681 124.249 197.835 123.801 199.697C123.353 201.559 124.534 203.424 126.439 203.862C128.345 204.301 130.253 203.146 130.701 201.284Z" fill="#F7F3EF" stroke="#070707" stroke-opacity="0.57" stroke-width="1.5" stroke-linecap="round" stroke-linejoin="round"/>
<path d="M116.023 200.485L118.706 202.745" stroke="#070707" stroke-opacity="0.57" stroke-width="1.5" stroke-linecap="round" stroke-linejoin="round"/>
<path d="M127.25 200.485V197.023" stroke="#070707" stroke-opacity="0.57" stroke-width="1.5" stroke-linecap="round" stroke-linejoin="round"/>
<path d="M55.5002 200.485L58.629 198.859" stroke="#070707" stroke-opacity="0.57" stroke-width="1.5" stroke-linecap="round" stroke-linejoin="round"/>
<path d="M66.7288 200.485V197.023" stroke="#070707" stroke-opacity="0.57" stroke-width="1.5" stroke-linecap="round" stroke-linejoin="round"/>
<path d="M85.7617 200.485V197.023" stroke="#070707" stroke-opacity="0.57" stroke-width="1.5" stroke-linecap="round" stroke-linejoin="round"/>
<path d="M96.99 200.485V197.023" stroke="#070707" stroke-opacity="0.57" stroke-width="1.5" stroke-linecap="round" stroke-linejoin="round"/>
<path d="M117.151 216.12L40.6377 270.519V216.12H117.151Z" fill="#201F1F" fill-opacity="0.89"/>
<path d="M127.416 216.12H141.43L59.4448 272.274H45.4304L127.416 216.12Z" fill="#201F1F" fill-opacity="0.89"/>
<path d="M137.85 218.085H44.7143C43.992 218.085 43.4065 218.657 43.4065 219.363V220.536C43.4065 221.242 43.992 221.815 44.7143 221.815H137.85C138.572 221.815 139.158 221.242 139.158 220.536V219.363C139.158 218.657 138.572 218.085 137.85 218.085Z" fill="#F7F3EF" stroke="#070707" stroke-opacity="0.57" stroke-width="1.5" stroke-linecap="round" stroke-linejoin="round"/>
<path d="M106.076 182.419L109.949 179.404H128.408L132.282 182.419" fill="#F7F3EF"/>
<path d="M106.076 182.419L109.949 179.404H128.408L132.282 182.419" stroke="#070707" stroke-opacity="0.57" stroke-width="1.5" stroke-linecap="round" stroke-linejoin="round"/>
<path d="M119.179 179.404V182.419" stroke="#070707" stroke-opacity="0.57" stroke-width="1.5" stroke-linecap="round" stroke-linejoin="round"/>
<path d="M169.218 182.419L173.091 179.404H191.548L195.422 182.419" fill="#F7F3EF"/>
<path d="M169.218 182.419L173.091 179.404H191.548L195.422 182.419" stroke="#070707" stroke-opacity="0.57" stroke-width="1.5" stroke-linecap="round" stroke-linejoin="round"/>
<path d="M182.319 179.404V182.419" stroke="#070707" stroke-opacity="0.57" stroke-width="1.5" stroke-linecap="round" stroke-linejoin="round"/>
<path d="M53.0054 182.419L56.879 179.404H75.3376L79.2112 182.419" fill="#F7F3EF"/>
<path d="M53.0054 182.419L56.879 179.404H75.3376L79.2112 182.419" stroke="#070707" stroke-opacity="0.57" stroke-width="1.5" stroke-linecap="round" stroke-linejoin="round"/>
<path d="M66.1082 179.404V182.419" stroke="#070707" stroke-opacity="0.57" stroke-width="1.5" stroke-linecap="round" stroke-linejoin="round"/>
</g>
<defs>
<clipPath id="clip0_1059_7268">
<rect width="252" height="319" rx="12" fill="white"/>
</clipPath>
</defs>
</svg>
